<?xml version="1.0" encoding="UTF-8"?>
<svg version="1.1" xmlns="http://www.w3.org/2000/svg" width="584" height="427">
<path d="M0 0 C0.32329201 4.97984471 0.55799957 9.95351535 0.71411133 14.94140625 C0.77919461 16.63389455 0.86770958 18.3256597 0.98071289 20.015625 C1.7122876 31.2441382 1.7122876 31.2441382 0 36 C-3.89521012 40.00510959 -7.8392535 41.83978314 -13 44 C-14.90733872 45.041705 -16.80555588 46.1005885 -18.6875 47.1875 C-22.03177708 48.98492846 -25.4036402 50.70388143 -28.8125 52.375 C-33.56951057 54.72330205 -38.16079365 57.33421818 -42.75268555 59.9855957 C-46.35085851 62.06242303 -49.96898465 64.08941235 -53.625 66.0625 C-57.46089374 68.13793224 -61.23940302 70.2910118 -65 72.5 C-69.00372911 74.84377363 -73.01451315 77.1708407 -77.0625 79.4375 C-78.37927734 80.17806641 -78.37927734 80.17806641 -79.72265625 80.93359375 C-82 82 -82 82 -85 82 C-85 90.25 -85 98.5 -85 107 C-81.7 105.02 -78.4 103.04 -75 101 C-72.42780923 99.58529507 -69.85480699 98.17189904 -67.26953125 96.78125 C-64.66997148 95.36500238 -62.08825368 93.92601021 -59.51171875 92.46875 C-58.71701172 92.02112305 -57.92230469 91.57349609 -57.10351562 91.11230469 C-55.52310331 90.22116678 -53.94487805 89.32613617 -52.36914062 88.42675781 C-48.32388306 86.15284881 -44.49127079 84.28526032 -40 83 C-37.30203329 85.69796671 -38.58786822 94.53938772 -38.54003906 98.32714844 C-38.51345969 99.93552474 -38.47256317 101.54373145 -38.41699219 103.15136719 C-38.33771556 105.47140259 -38.3047135 107.78818251 -38.28125 110.109375 C-38.24825806 110.82414001 -38.21526611 111.53890503 -38.18127441 112.27532959 C-38.19308062 115.23719041 -38.41373923 117.3871386 -40.50390625 119.57214355 C-43.85406269 122.04358849 -46.77135065 123.61557733 -51 124 C-51 124.66 -51 125.32 -51 126 C-51.78503906 126.38671875 -52.57007813 126.7734375 -53.37890625 127.171875 C-60.31815133 130.59242115 -60.31815133 130.59242115 -67.0625 134.375 C-70 136 -70 136 -73 136 C-73 136.66 -73 137.32 -73 138 C-74.62249941 138.83819158 -76.24808497 139.6704116 -77.875 140.5 C-78.77992188 140.9640625 -79.68484375 141.428125 -80.6171875 141.90625 C-83 143 -83 143 -85 143 C-85.3047243 146.58582551 -85.209384 149.58943591 -84 153 C-80.70526099 155.91521148 -77.25374273 157.86101971 -73 159 C-68.50604733 157.8783446 -64.55726699 155.1208129 -60.5625 152.8125 C-55.31860894 149.81642185 -50.04723923 146.97313875 -44.625 144.3125 C-39.69797444 141.89093125 -34.98488429 139.28587311 -30.30859375 136.4140625 C-24.72965543 132.99684478 -19.33818874 129.78769426 -13 128 C-13 127.34 -13 126.68 -13 126 C-7.375 123 -7.375 123 -4 123 C-4 122.34 -4 121.68 -4 121 C-3.37738281 120.70609375 -2.75476563 120.4121875 -2.11328125 120.109375 C3.12776597 117.56560313 8.22788295 114.89651946 13.26171875 111.96484375 C14.18573486 111.42698242 15.10975098 110.88912109 16.06176758 110.33496094 C17.9166637 109.24871265 19.76690604 108.15447257 21.61206055 107.05175781 C22.48000244 106.54354492 23.34794434 106.03533203 24.2421875 105.51171875 C25.0141748 105.05240967 25.78616211 104.59310059 26.58154297 104.11987305 C29.37636451 102.8257234 31.95634604 102.38629935 35 102 C35.14845558 107.05358014 35.25726186 112.10588883 35.32958984 117.16113281 C35.35974161 118.88010771 35.4006713 120.59892902 35.45263672 122.31738281 C35.52553181 124.79009864 35.55946901 127.26077994 35.5859375 129.734375 C35.61690521 130.50118591 35.64787292 131.26799683 35.67977905 132.05804443 C35.68115234 134.24121094 35.68115234 134.24121094 35 138 C32.1262207 140.42333984 32.1262207 140.42333984 29 142 C28.14019531 142.49242187 27.28039062 142.98484375 26.39453125 143.4921875 C25.54246094 143.94851562 24.69039062 144.40484375 23.8125 144.875 C22.84957031 145.39320313 21.88664063 145.91140625 20.89453125 146.4453125 C19.93933594 146.95835937 18.98414063 147.47140625 18 148 C16.3329467 148.91596335 14.66628353 149.83263706 13 150.75 C8.71304371 153.09337209 4.39326634 155.36835984 0.06323242 157.63061523 C-7.1022761 161.37531572 -14.15785302 165.2121439 -21.10546875 169.3515625 C-24.38426243 171.21883771 -27.73822065 172.90313235 -31.125 174.5625 C-36.0983211 177.00821663 -40.85485026 179.62467 -45.5703125 182.53125 C-49.95635879 185.18262203 -54.49118658 187.56563339 -59 190 C-60.71015132 190.93417958 -62.41863158 191.87142835 -64.125 192.8125 C-64.84945312 193.21082031 -65.57390625 193.60914063 -66.3203125 194.01953125 C-67.97435063 194.88961274 -67.97435063 194.88961274 -69 196 C-73.05741131 196.59376751 -75.38512781 195.97848556 -78.71875 193.78515625 C-79.42008057 193.33076172 -80.12141113 192.87636719 -80.84399414 192.40820312 C-81.55547607 191.94349609 -82.26695801 191.47878906 -83 191 C-84.31938106 190.1748035 -85.64095404 189.3530998 -86.96484375 188.53515625 C-93.40649858 184.52797298 -99.81621725 180.50203994 -106.09765625 176.24609375 C-108.9864925 174.35381703 -111.99084983 172.69264697 -115 171 C-116.83723251 169.16276749 -116.12648269 166.5854542 -116.13552856 164.14030457 C-116.13350433 163.29784683 -116.1314801 162.4553891 -116.12939453 161.58740234 C-116.13114685 160.70426865 -116.13289917 159.82113495 -116.13470459 158.91123962 C-116.13913113 155.96945265 -116.13617882 153.02772517 -116.1328125 150.0859375 C-116.13348615 148.03821806 -116.13445669 145.9904987 -116.13571167 143.94277954 C-116.1371904 139.63339482 -116.13503159 135.32403076 -116.13037109 131.01464844 C-116.12472382 125.52882899 -116.12791957 120.043059 -116.13394356 114.55724144 C-116.13758756 110.31720622 -116.13639224 106.07718236 -116.13381577 101.83714676 C-116.13315444 99.81763325 -116.13394674 97.79811867 -116.13629532 95.77860641 C-116.14196906 89.51790758 -116.10686037 83.25983017 -116 77 C-115.98878868 76.22993874 -115.97757736 75.45987747 -115.96602631 74.66648102 C-115.92472851 72.56308944 -115.85194972 70.46376179 -115.76513672 68.36181641 C-115.72427948 67.20743073 -115.68342224 66.05304504 -115.6413269 64.86367798 C-115 62 -115 62 -112.93777466 59.90023804 C-110.3761511 58.28011296 -107.80229679 57.1500534 -105 56 C-103.30226543 55.08116387 -101.61484629 54.14304796 -99.9375 53.1875 C-94.34783307 50.16541189 -88.7272655 47.20075206 -83.10131836 44.24682617 C-79.74197714 42.47769634 -76.43280899 40.6718311 -73.171875 38.7265625 C-70 37 -70 37 -67 37 C-67 36.34 -67 35.68 -67 35 C-66.26136719 34.63648438 -65.52273438 34.27296875 -64.76171875 33.8984375 C-56.00125285 29.55716469 -47.41807448 24.98368265 -38.95629883 20.08544922 C-33.69108381 17.04041803 -28.40874052 14.16874954 -22.9375 11.5 C-16.88542104 8.54226841 -11.28336747 5.16810685 -5.64453125 1.50390625 C-3 0 -3 0 0 0 Z " fill="#152740" transform="translate(343,111)"/>
<path d="M0 0 C0.14845558 5.05358014 0.25726186 10.10588883 0.32958984 15.16113281 C0.35974161 16.88010771 0.4006713 18.59892902 0.45263672 20.31738281 C0.52553181 22.79009864 0.55946901 25.26077994 0.5859375 27.734375 C0.61690521 28.50118591 0.64787292 29.26799683 0.67977905 30.05804443 C0.68115234 32.24121094 0.68115234 32.24121094 0 36 C-2.8737793 38.42333984 -2.8737793 38.42333984 -6 40 C-6.85980469 40.49242187 -7.71960938 40.98484375 -8.60546875 41.4921875 C-9.45753906 41.94851562 -10.30960938 42.40484375 -11.1875 42.875 C-12.15042969 43.39320313 -13.11335937 43.91140625 -14.10546875 44.4453125 C-15.06066406 44.95835937 -16.01585937 45.47140625 -17 46 C-18.6670533 46.91596335 -20.33371647 47.83263706 -22 48.75 C-26.28695629 51.09337209 -30.60673366 53.36835984 -34.93676758 55.63061523 C-42.1022761 59.37531572 -49.15785302 63.2121439 -56.10546875 67.3515625 C-59.38426243 69.21883771 -62.73822065 70.90313235 -66.125 72.5625 C-71.0983211 75.00821663 -75.85485026 77.62467 -80.5703125 80.53125 C-84.95635879 83.18262203 -89.49118658 85.56563339 -94 88 C-95.71015132 88.93417958 -97.41863158 89.87142835 -99.125 90.8125 C-99.84945312 91.21082031 -100.57390625 91.60914063 -101.3203125 92.01953125 C-102.97435063 92.88961274 -102.97435063 92.88961274 -104 94 C-108.05741131 94.59376751 -110.38512781 93.97848556 -113.71875 91.78515625 C-114.77074585 91.10356445 -114.77074585 91.10356445 -115.84399414 90.40820312 C-116.55547607 89.94349609 -117.26695801 89.47878906 -118 89 C-119.31938106 88.1748035 -120.64095404 87.3530998 -121.96484375 86.53515625 C-134.96792549 78.44606726 -134.96792549 78.44606726 -141.203125 74.15625 C-143.01280304 72.93744147 -143.01280304 72.93744147 -145.15625 71.9765625 C-147.50572171 70.73213893 -148.03131363 69.42171593 -149 67 C-148.34 67 -147.68 67 -147 67 C-146.67 66.01 -146.34 65.02 -146 64 C-144.109375 62.68359375 -144.109375 62.68359375 -141.75 61.4375 C-140.98171875 61.02371094 -140.2134375 60.60992187 -139.421875 60.18359375 C-137 59 -137 59 -134.51171875 58.01171875 C-131.91259565 56.96479358 -129.52649088 55.70625574 -127.0625 54.375 C-120.36514668 51.05105507 -120.36514668 51.05105507 -116 52 C-113.91815981 53.27476497 -111.95904128 54.60834846 -110.02734375 56.1015625 C-107.99878062 57.25162781 -107.99878062 57.25162781 -105.71875 56.41015625 C-102.28305032 54.62813386 -98.91286914 52.7484578 -95.5625 50.8125 C-90.31860894 47.81642185 -85.04723923 44.97313875 -79.625 42.3125 C-74.69797444 39.89093125 -69.98488429 37.28587311 -65.30859375 34.4140625 C-59.72965543 30.99684478 -54.33818874 27.78769426 -48 26 C-48 25.34 -48 24.68 -48 24 C-42.375 21 -42.375 21 -39 21 C-39 20.34 -39 19.68 -39 19 C-38.37738281 18.70609375 -37.75476563 18.4121875 -37.11328125 18.109375 C-27.12487727 13.26144671 -17.56727236 7.68238363 -7.96435547 2.11987305 C-4.75030397 0.28755211 -3.97522339 0 0 0 Z " fill="#162841" transform="translate(378,213)"/>
<path d="M0 0 C0.32338703 4.83741072 0.55803078 9.66845939 0.71411133 14.51416016 C0.77918099 16.15817831 0.86768697 17.80145253 0.98071289 19.44287109 C1.71016625 30.31535694 1.71016625 30.31535694 0 35 C-3.87177669 38.98856287 -7.85164266 40.86526891 -13 43 C-14.30911535 43.67784869 -15.6141137 44.36388538 -16.91015625 45.06640625 C-17.95042969 45.56011719 -18.99070312 46.05382812 -20.0625 46.5625 C-26.57361512 49.74251424 -32.77443386 53.29959972 -39 57 C-58.52011997 68.40152462 -58.52011997 68.40152462 -65 71 C-65.66 70.67 -66.32 70.34 -67 70 C-67.14870119 65.24956897 -67.25737512 60.50050144 -67.32958984 55.74829102 C-67.35970087 54.13314204 -67.40060063 52.51815577 -67.45263672 50.90356445 C-67.52571534 48.57722837 -67.5595088 46.25305852 -67.5859375 43.92578125 C-67.63238907 42.84892815 -67.63238907 42.84892815 -67.67977905 41.75032043 C-67.68256968 37.56099583 -67.17878997 36.18301298 -64.20922852 33.14331055 C-59.52093057 30.01219091 -59.52093057 30.01219091 -57.06640625 28.78125 C-56.34678711 28.41306152 -55.62716797 28.04487305 -54.88574219 27.66552734 C-53.7357373 27.08859131 -53.7357373 27.08859131 -52.5625 26.5 C-45.02251887 22.62888148 -37.6131344 18.5725214 -30.25 14.375 C-16.26020192 6.43047774 -16.26020192 6.43047774 -10.3125 3.1875 C-9.17425781 2.56230469 -8.03601563 1.93710938 -6.86328125 1.29296875 C-4 0 -4 0 0 0 Z " fill="#AC8232" transform="translate(378,154)"/>
<path d="M0 0 C0.14845558 5.05358014 0.25726186 10.10588883 0.32958984 15.16113281 C0.35974161 16.88010771 0.4006713 18.59892902 0.45263672 20.31738281 C0.52553181 22.79009864 0.55946901 25.26077994 0.5859375 27.734375 C0.61690521 28.50118591 0.64787292 29.26799683 0.67977905 30.05804443 C0.68115234 32.24121094 0.68115234 32.24121094 0 36 C-2.8737793 38.42333984 -2.8737793 38.42333984 -6 40 C-6.85980469 40.49242187 -7.71960938 40.98484375 -8.60546875 41.4921875 C-9.45753906 41.94851562 -10.30960937 42.40484375 -11.1875 42.875 C-12.14269531 43.38933594 -13.09789062 43.90367187 -14.08203125 44.43359375 C-15.52642578 45.20896484 -15.52642578 45.20896484 -17 46 C-18.7923643 46.97788906 -20.58403745 47.95704605 -22.375 48.9375 C-23.26832031 49.4221875 -24.16164063 49.906875 -25.08203125 50.40625 C-27.23322069 51.58119684 -29.3744477 52.76904169 -31.51171875 53.96875 C-32.69525487 54.62510393 -33.8788477 55.28135562 -35.0625 55.9375 C-36.14660156 56.54464844 -37.23070312 57.15179688 -38.34765625 57.77734375 C-39.22292969 58.18082031 -40.09820312 58.58429688 -41 59 C-41.66 58.67 -42.32 58.34 -43 58 C-42.67 46.78 -42.34 35.56 -42 24 C-42.99 23.67 -43.98 23.34 -45 23 C-42 21 -42 21 -39 21 C-39 20.34 -39 19.68 -39 19 C-38.06607422 18.55914062 -38.06607422 18.55914062 -37.11328125 18.109375 C-27.12487727 13.26144671 -17.56727236 7.68238363 -7.96435547 2.11987305 C-4.75030397 0.28755211 -3.97522339 0 0 0 Z " fill="#C7993B" transform="translate(378,213)"/>
<path d="M0 0 C0.32338703 4.83741072 0.55803078 9.66845939 0.71411133 14.51416016 C0.77918099 16.15817831 0.86768697 17.80145253 0.98071289 19.44287109 C1.71016625 30.31535694 1.71016625 30.31535694 0 35 C-3.87177669 38.98856287 -7.85164266 40.86526891 -13 43 C-14.30911535 43.67784869 -15.6141137 44.36388538 -16.91015625 45.06640625 C-17.95042969 45.56011719 -18.99070312 46.05382812 -20.0625 46.5625 C-26.57361512 49.74251424 -32.77443386 53.29959972 -39 57 C-58.52011997 68.40152462 -58.52011997 68.40152462 -65 71 C-65.66 70.67 -66.32 70.34 -67 70 C-67 58.78 -67 47.56 -67 36 C-66.01 35.505 -66.01 35.505 -65 35 C-63.21923828 35.63330078 -63.21923828 35.63330078 -61.0703125 36.6953125 C-59.88514038 37.27176514 -59.88514038 37.27176514 -58.67602539 37.85986328 C-57.83418701 38.2773584 -56.99234863 38.69485352 -56.125 39.125 C-54.3979967 39.96011679 -52.67013129 40.79345313 -50.94140625 41.625 C-50.09723145 42.03234375 -49.25305664 42.4396875 -48.38330078 42.859375 C-45.29710231 44.33640012 -42.19879595 45.75699978 -39.0625 47.125 C-38.16660156 47.51945312 -37.27070313 47.91390625 -36.34765625 48.3203125 C-32.37675687 49.46995725 -29.58119908 47.94312689 -26 46.1875 C-25.34 45.87167969 -24.68 45.55585938 -24 45.23046875 C-17.87325084 41.46108206 -16.31751885 36.32599536 -14 29.8125 C-13.33584047 27.9847641 -12.66919153 26.15793079 -12 24.33203125 C-11.51273437 22.99712646 -11.51273437 22.99712646 -11.015625 21.63525391 C-9.73481445 18.31191998 -8.26678217 15.09559481 -6.734375 11.8815918 C-5.81820829 9.87085673 -5.81820829 9.87085673 -6 7 C-8.31 7.33 -10.62 7.66 -13 8 C-13 8.66 -13 9.32 -13 10 C-13.99 10.33 -14.98 10.66 -16 11 C-16.495 11.66 -16.99 12.32 -17.5 13 C-21.47679104 16.18143283 -26.04213855 15.82903926 -31 16 C-27.2927085 12.87219097 -23.41008867 10.35924401 -19.1875 8 C-18.5702002 7.65259766 -17.95290039 7.30519531 -17.31689453 6.94726562 C-4.90501143 0 -4.90501143 0 0 0 Z " fill="#C79B3F" transform="translate(378,154)"/>
<path d="M0 0 C7.3560794 3.71215881 7.3560794 3.71215881 9 7 C9.37242222 11.44851358 9.46896396 15.91420507 9.625 20.375 C9.6765625 21.62023437 9.728125 22.86546875 9.78125 24.1484375 C9.82507813 25.3446875 9.86890625 26.5409375 9.9140625 27.7734375 C9.9548291 28.87091309 9.9955957 29.96838867 10.03759766 31.09912109 C10.0048557 33.62535417 9.75135085 35.60511455 9 38 C4.10742886 39.59420857 0.56189994 38.02586804 -4 36 C-6.23652897 34.67860123 -8.34499556 33.24560172 -10.46875 31.75 C-13.49497556 29.65779468 -16.61133609 27.7292447 -19.75 25.8125 C-20.81734375 25.15894531 -21.8846875 24.50539063 -22.984375 23.83203125 C-24.91046418 22.66190712 -26.85085921 21.51480907 -28.80859375 20.3984375 C-31.24806279 18.84169968 -31.98706409 17.67046741 -33 15 C-32.34 15 -31.68 15 -31 15 C-30.67 14.01 -30.34 13.02 -30 12 C-28.109375 10.68359375 -28.109375 10.68359375 -25.75 9.4375 C-24.59757813 8.81681641 -24.59757813 8.81681641 -23.421875 8.18359375 C-21 7 -21 7 -18.51171875 6.01171875 C-15.91259565 4.96479358 -13.52649088 3.70625574 -11.0625 2.375 C-4.36514668 -0.94894493 -4.36514668 -0.94894493 0 0 Z " fill="#0F1628" transform="translate(262,265)"/>
<path d="M0 0 C0 0.66 0 1.32 0 2 C0.91652344 2.20302734 0.91652344 2.20302734 1.8515625 2.41015625 C12.75584314 4.97496592 23.35467034 8.53728398 34 12 C28.57383741 15.61744172 20.62481006 20 14 20 C13.67 20.99 13.34 21.98 13 23 C11.67696283 23.3721042 10.34262065 23.70630173 9 24 C8.67 24.66 8.34 25.32 8 26 C3.66732224 26.94188647 0.25178895 27.41726298 -4 26 C-5.00005304 22.99984088 -5.11575585 21.02576244 -5.09765625 17.89453125 C-5.09443359 16.91162109 -5.09121094 15.92871094 -5.08789062 14.91601562 C-5.07951172 13.89185547 -5.07113281 12.86769531 -5.0625 11.8125 C-5.05798828 10.77673828 -5.05347656 9.74097656 -5.04882812 8.67382812 C-5.0370401 6.11582734 -5.02058515 3.55794267 -5 1 C-2 0 -2 0 0 0 Z " fill="#A47C2F" transform="translate(341,236)"/>
<path d="M0 0 C0.32338703 4.83741072 0.55803078 9.66845939 0.71411133 14.51416016 C0.77918099 16.15817831 0.86768697 17.80145253 0.98071289 19.44287109 C1.70981381 30.31010376 1.70981381 30.31010376 0 35 C-3.86873865 38.99212326 -7.85224106 40.8631944 -13 43 C-14.35592474 43.70139611 -15.70767422 44.41107978 -17.05078125 45.13671875 C-18.12714844 45.64847656 -19.20351563 46.16023438 -20.3125 46.6875 C-24.25148724 48.59997042 -28.01932632 50.54579701 -31.6875 52.9375 C-35 55 -35 55 -38 55 C-38.495 53.515 -38.495 53.515 -39 52 C-36 50 -36 50 -32.875 49.5 C-31.451875 49.2525 -31.451875 49.2525 -30 49 C-29.67 48.34 -29.34 47.68 -29 47 C-27.30703007 46.29725777 -25.61134458 45.59757744 -23.88671875 44.9765625 C-17.66713755 41.75731757 -16.21119546 36.02716849 -14 29.8125 C-13.33584047 27.9847641 -12.66919153 26.15793079 -12 24.33203125 C-11.51273437 22.99712646 -11.51273437 22.99712646 -11.015625 21.63525391 C-9.73481445 18.31191998 -8.26678217 15.09559481 -6.734375 11.8815918 C-5.81820829 9.87085673 -5.81820829 9.87085673 -6 7 C-8.31 7.33 -10.62 7.66 -13 8 C-13 8.66 -13 9.32 -13 10 C-13.99 10.33 -14.98 10.66 -16 11 C-16.495 11.66 -16.99 12.32 -17.5 13 C-21.47679104 16.18143283 -26.04213855 15.82903926 -31 16 C-27.2927085 12.87219097 -23.41008867 10.35924401 -19.1875 8 C-18.5702002 7.65259766 -17.95290039 7.30519531 -17.31689453 6.94726562 C-4.90501143 0 -4.90501143 0 0 0 Z " fill="#C79D41" transform="translate(378,154)"/>
<path d="M0 0 C0.14845558 5.05358014 0.25726186 10.10588883 0.32958984 15.16113281 C0.35974161 16.88010771 0.4006713 18.59892902 0.45263672 20.31738281 C0.52553181 22.79009864 0.55946901 25.26077994 0.5859375 27.734375 C0.61690521 28.50118591 0.64787292 29.26799683 0.67977905 30.05804443 C0.68115234 32.24121094 0.68115234 32.24121094 0 36 C-2.8737793 38.42333984 -2.8737793 38.42333984 -6 40 C-6.85980469 40.49242187 -7.71960938 40.98484375 -8.60546875 41.4921875 C-9.45753906 41.94851562 -10.30960937 42.40484375 -11.1875 42.875 C-12.14269531 43.38933594 -13.09789062 43.90367187 -14.08203125 44.43359375 C-15.52642578 45.20896484 -15.52642578 45.20896484 -17 46 C-18.7923643 46.97788906 -20.58403745 47.95704605 -22.375 48.9375 C-23.26832031 49.4221875 -24.16164063 49.906875 -25.08203125 50.40625 C-27.23322069 51.58119684 -29.3744477 52.76904169 -31.51171875 53.96875 C-32.69525487 54.62510393 -33.8788477 55.28135562 -35.0625 55.9375 C-36.14660156 56.54464844 -37.23070312 57.15179688 -38.34765625 57.77734375 C-39.22292969 58.18082031 -40.09820312 58.58429688 -41 59 C-41.66 58.67 -42.32 58.34 -43 58 C-42.67 54.04 -42.34 50.08 -42 46 C-41.34 46.99 -40.68 47.98 -40 49 C-38.8553125 48.7525 -38.8553125 48.7525 -37.6875 48.5 C-35 48 -35 48 -32 48 C-30.65938457 47.69728039 -29.32594105 47.36162029 -28 47 C-26.66666667 46.66666667 -25.33333333 46.33333333 -24 46 C-23.67 44.68 -23.34 43.36 -23 42 C-22.195625 41.9175 -21.39125 41.835 -20.5625 41.75 C-16.76948229 40.95146996 -13.71527187 39.61952576 -10.24609375 37.9375 C-8 37 -8 37 -3 36 C-3.33 26.1 -3.66 16.2 -4 6 C-7.23475448 7.61737724 -8.70572021 8.47629223 -11 11 C-11 10.34 -11 9.68 -11 9 C-15.07415064 9.17173709 -15.07415064 9.17173709 -19 10 C-19.67203755 11.33063434 -20.33838858 12.664151 -21 14 C-23.09375 15.08203125 -23.09375 15.08203125 -25.5 15.8125 C-26.2940625 16.06644531 -27.088125 16.32039063 -27.90625 16.58203125 C-30 17 -30 17 -32 16 C-15.97711749 6.49521858 -15.97711749 6.49521858 -8.6875 2.375 C-7.86636719 1.90835938 -7.04523438 1.44171875 -6.19921875 0.9609375 C-4 0 -4 0 0 0 Z " fill="#D9C18D" transform="translate(378,213)"/>
<path d="M0 0 C0.32338703 4.83741072 0.55803078 9.66845939 0.71411133 14.51416016 C0.77918099 16.15817831 0.86768697 17.80145253 0.98071289 19.44287109 C1.87034671 32.7028431 1.87034671 32.7028431 -1.28570557 36.57910156 C-4.7743649 39.56614017 -8.6471881 41.52588253 -13 43 C-13.66 42.67 -14.32 42.34 -15 42 C-14.67 41.01 -14.34 40.02 -14 39 C-12.68 39 -11.36 39 -10 39 C-9.67 38.01 -9.34 37.02 -9 36 C-8.34 36 -7.68 36 -7 36 C-7 35.34 -7 34.68 -7 34 C-5.68 34 -4.36 34 -3 34 C-3 24.1 -3 14.2 -3 4 C-6.96 5.98 -6.96 5.98 -11 8 C-11.66 8 -12.32 8 -13 8 C-13 8.66 -13 9.32 -13 10 C-13.99 10.33 -14.98 10.66 -16 11 C-16.495 11.66 -16.99 12.32 -17.5 13 C-21.47679104 16.18143283 -26.04213855 15.82903926 -31 16 C-27.2927085 12.87219097 -23.41008867 10.35924401 -19.1875 8 C-18.5702002 7.65259766 -17.95290039 7.30519531 -17.31689453 6.94726562 C-4.90501143 0 -4.90501143 0 0 0 Z " fill="#E5D0A7" transform="translate(378,154)"/>
<path d="M0 0 C-1 3 -1 3 -3.30078125 4.359375 C-4.79158203 5.04773438 -4.79158203 5.04773438 -6.3125 5.75 C-10.63779846 7.82062161 -14.81313769 9.99037836 -18.9375 12.4375 C-23.30340086 15.01551543 -27.68568811 17.55100122 -32.125 20 C-33.20007813 20.598125 -34.27515625 21.19625 -35.3828125 21.8125 C-36.24648438 22.204375 -37.11015625 22.59625 -38 23 C-38.66 22.67 -39.32 22.34 -40 22 C-39.67 18.04 -39.34 14.08 -39 10 C-38.01 11.485 -38.01 11.485 -37 13 C-36.236875 12.835 -35.47375 12.67 -34.6875 12.5 C-32 12 -32 12 -29 12 C-27.65938457 11.69728039 -26.32594105 11.36162029 -25 11 C-23.66666667 10.66666667 -22.33333333 10.33333333 -21 10 C-20.67 8.68 -20.34 7.36 -20 6 C-19.195625 5.9175 -18.39125 5.835 -17.5625 5.75 C-11.56713616 4.48781814 -6.02137718 0 0 0 Z " fill="#BFA366" transform="translate(375,249)"/>
<path d="M0 0 C0.99 0.33 1.98 0.66 3 1 C2.67 10.9 2.34 20.8 2 31 C5.96 29.68 9.92 28.36 14 27 C14.33 26.34 14.66 25.68 15 25 C16.32 25 17.64 25 19 25 C19 24.01 19 23.02 19 22 C20.32 22.66 21.64 23.32 23 24 C15.94214379 28.40335277 8.72213007 32.85983002 1 36 C0.34 35.67 -0.32 35.34 -1 35 C-1.0246519 30.17619198 -1.04283693 25.35242033 -1.05493164 20.52856445 C-1.05997174 18.88630536 -1.06680378 17.24405077 -1.07543945 15.60180664 C-1.08751926 13.24624521 -1.09323139 10.89074291 -1.09765625 8.53515625 C-1.10281754 7.79660904 -1.10797882 7.05806183 -1.11329651 6.2971344 C-1.1134925 4.53101912 -1.06194719 2.76502854 -1 1 C-0.67 0.67 -0.34 0.34 0 0 Z " fill="#D8BC8A" transform="translate(312,189)"/>
<path d="M0 0 C0 11.88 0 23.76 0 36 C-1.65 36.66 -3.3 37.32 -5 38 C-4.34 36.68 -3.68 35.36 -3 34 C-2.34 34 -1.68 34 -1 34 C-1.495 21.625 -1.495 21.625 -2 9 C-4.32357511 8.81509993 -4.32357511 8.81509993 -7 11 C-7.33 10.34 -7.66 9.68 -8 9 C-9.32 9 -10.64 9 -12 9 C-12.66 9.66 -13.32 10.32 -14 11 C-16.65537372 11.56520003 -19.29144713 11.73788198 -22 12 C-19.54633918 9.23345626 -16.88344011 7.71402877 -13.625 6 C-10.79962162 4.50558499 -8.03686683 3.0233526 -5.3359375 1.3125 C-3 0 -3 0 0 0 Z " fill="#1B2D47" transform="translate(343,111)"/>
<path d="M0 0 C-0.22265625 1.83984375 -0.22265625 1.83984375 -1 4 C-2.99609375 5.37890625 -2.99609375 5.37890625 -5.4375 6.5625 C-8.78401546 8.20084224 -9.86446085 8.79669127 -12 12 C-17.89473684 14 -17.89473684 14 -21 14 C-21 14.66 -21 15.32 -21 16 C-22.134375 16.12375 -23.26875 16.2475 -24.4375 16.375 C-26.2009375 16.684375 -26.2009375 16.684375 -28 17 C-28.33 17.66 -28.66 18.32 -29 19 C-30.65 19 -32.3 19 -34 19 C-30.3559231 14.67702658 -25.76589496 12.56797398 -20.8125 10.0625 C-19.17263405 9.22110962 -17.53330908 8.37866401 -15.89453125 7.53515625 C-15.08838379 7.12281738 -14.28223633 6.71047852 -13.45166016 6.28564453 C-10.19365705 4.57715575 -7.00357321 2.75710452 -3.8190918 0.91577148 C-2 0 -2 0 0 0 Z " fill="#BDA173" transform="translate(347,170)"/>
<path d="M0 0 C0.99 0.99 1.98 1.98 3 3 C1.68 5.97 0.36 8.94 -1 12 C-6.34844008 11.46515599 -10.35796103 9.53309233 -15 7 C-11.46839815 3.46839815 -6.82338857 3.64930231 -2 3 C-2 2.34 -2 1.68 -2 1 C-1.34 0.67 -0.68 0.34 0 0 Z " fill="#9B742C" transform="translate(328,183)"/>
<path d="M0 0 C0.66 0.99 1.32 1.98 2 3 C2.763125 2.835 3.52625 2.67 4.3125 2.5 C7.87060352 1.83802725 10.55226389 2.04890038 14 3 C13.87109375 4.79296875 13.87109375 4.79296875 13 7 C10.34765625 8.73828125 10.34765625 8.73828125 7.0625 10.3125 C5.44021484 11.11107422 5.44021484 11.11107422 3.78515625 11.92578125 C2.86605469 12.28027344 1.94695312 12.63476562 1 13 C0.34 12.67 -0.32 12.34 -1 12 C-0.67 8.04 -0.34 4.08 0 0 Z " fill="#BD8D37" transform="translate(336,259)"/>
<path d="M0 0 C0.99 0.33 1.98 0.66 3 1 C3.04936883 5.80548597 3.08570443 10.61082494 3.10986328 15.41650391 C3.11993254 17.05194672 3.13358881 18.68737149 3.15087891 20.32275391 C3.17508705 22.6709437 3.18647357 25.01889588 3.1953125 27.3671875 C3.20563507 28.10057343 3.21595764 28.83395935 3.22659302 29.58956909 C3.22699368 31.39462697 3.12212755 33.1990783 3 35 C2.34 35.66 1.68 36.32 1 37 C0.01 37 -0.98 37 -2 37 C-1.67 36.01 -1.34 35.02 -1 34 C-0.34 34 0.32 34 1 34 C1 23.44 1 12.88 1 2 C0.34 1.67 -0.32 1.34 -1 1 C-0.67 0.67 -0.34 0.34 0 0 Z " fill="#97A4B4" transform="translate(301,194)"/>
<path d="M0 0 C0.66 0 1.32 0 2 0 C2 10.89 2 21.78 2 33 C1.34 33 0.68 33 0 33 C-1.35361775 26.17175048 -0.89104878 19.48468295 -0.5625 12.5625 C-0.51029297 11.35400391 -0.45808594 10.14550781 -0.40429688 8.90039062 C-0.27529246 5.93328916 -0.1403565 2.96658252 0 0 Z " fill="#12171E" transform="translate(333,238)"/>
<path d="M0 0 C0.33 0 0.66 0 1 0 C2.90632159 22.78054299 2.90632159 22.78054299 -0.14550781 27.93457031 C-3.22679931 30.86706705 -6.87800784 32.24068565 -11 33 C-11.66 32.67 -12.32 32.34 -13 32 C-12.505 30.515 -12.505 30.515 -12 29 C-10.68 29 -9.36 29 -8 29 C-7.67 28.01 -7.34 27.02 -7 26 C-6.34 26 -5.68 26 -5 26 C-5 25.34 -5 24.68 -5 24 C-3.68 24 -2.36 24 -1 24 C-0.67 16.08 -0.34 8.16 0 0 Z " fill="#D1B882" transform="translate(376,164)"/>
<path d="M0 0 C1.98 0 3.96 0 6 0 C2.7893927 3.43596724 -0.92668541 5.41528626 -5 7.6875 C-5.72445313 8.10322266 -6.44890625 8.51894531 -7.1953125 8.94726562 C-7.89398438 9.33978516 -8.59265625 9.73230469 -9.3125 10.13671875 C-9.94800781 10.49467529 -10.58351563 10.85263184 -11.23828125 11.22143555 C-13 12 -13 12 -16 12 C-16.33 11.01 -16.66 10.02 -17 9 C-14 7 -14 7 -10.875 6.5 C-9.92625 6.335 -8.9775 6.17 -8 6 C-7.67 5.34 -7.34 4.68 -7 4 C-4.69034152 2.94647157 -2.3570226 1.94280904 0 1 C0 0.67 0 0.34 0 0 Z " fill="#BCA46F" transform="translate(356,197)"/>
<path d="M0 0 C-0.66 0 -1.32 0 -2 0 C-2 0.66 -2 1.32 -2 2 C-2.99 2.33 -3.98 2.66 -5 3 C-5.495 3.66 -5.99 4.32 -6.5 5 C-10.47679104 8.18143283 -15.04213855 7.82903926 -20 8 C-7.58974359 -2.52991453 -7.58974359 -2.52991453 0 0 Z " fill="#C5A462" transform="translate(367,162)"/>
<path d="M0 0 C0 11.88 0 23.76 0 36 C-1.65 36.66 -3.3 37.32 -5 38 C-4.34 36.68 -3.68 35.36 -3 34 C-2.34 34 -1.68 34 -1 34 C-1.33 23.44 -1.66 12.88 -2 2 C-2.99 2.99 -3.98 3.98 -5 5 C-5.99 4.34 -6.98 3.68 -8 3 C-3.375 0 -3.375 0 0 0 Z " fill="#566272" transform="translate(343,111)"/>
<path d="M0 0 C5.445 1.485 5.445 1.485 11 3 C8.50742747 4.66171502 6.20483487 5.9387679 3.5 7.1875 C2.7265625 7.55230469 1.953125 7.91710937 1.15625 8.29296875 C-1 9 -1 9 -4 8 C-2.66666667 5.33333333 -1.33333333 2.66666667 0 0 Z " fill="#B58A32" transform="translate(364,245)"/>
<path d="M0 0 C2.475 0.495 2.475 0.495 5 1 C2.03312999 2.64826111 -0.65626525 3.44271087 -4 4 C-4 4.66 -4 5.32 -4 6 C-5.134375 6.12375 -6.26875 6.2475 -7.4375 6.375 C-9.2009375 6.684375 -9.2009375 6.684375 -11 7 C-11.33 7.66 -11.66 8.32 -12 9 C-13.65 9 -15.3 9 -17 9 C-13.99528597 5.6485882 -11.20142002 3.64761569 -7 2 C-3.125 1.8125 -3.125 1.8125 0 2 C0 1.34 0 0.68 0 0 Z " fill="#B59B6D" transform="translate(330,180)"/>
<path d="M0 0 C4.455 0.99 4.455 0.99 9 2 C10 6.75 10 6.75 10 9 C8.35 9.33 6.7 9.66 5 10 C5.33 9.01 5.66 8.02 6 7 C5.34 6.67 4.68 6.34 4 6 C4 5.34 4 4.68 4 4 C2.68 3.34 1.36 2.68 0 2 C0 1.34 0 0.68 0 0 Z " fill="#9C732A" transform="translate(342,238)"/>
<path d="M0 0 C0.33 0 0.66 0 1 0 C1 2.97 1 5.94 1 9 C1.99 9 2.98 9 4 9 C4 8.34 4 7.68 4 7 C7.3 6.34 10.6 5.68 14 5 C12.48339626 8.03320748 10.05369111 8.69012609 7.0625 10.1875 C5.98097656 10.73792969 4.89945312 11.28835938 3.78515625 11.85546875 C2.86605469 12.23316406 1.94695312 12.61085938 1 13 C0.34 12.67 -0.32 12.34 -1 12 C-0.67 8.04 -0.34 4.08 0 0 Z " fill="#BAA16F" transform="translate(336,259)"/>
<path d="M0 0 C0.66 0 1.32 0 2 0 C2 0.99 2 1.98 2 3 C3.65 2.67 5.3 2.34 7 2 C4.81482901 4.40575607 2.74080329 5.79535581 -0.1875 7.1875 C-0.90292969 7.53167969 -1.61835938 7.87585938 -2.35546875 8.23046875 C-2.89816406 8.48441406 -3.44085938 8.73835938 -4 9 C-4.33 7.68 -4.66 6.36 -5 5 C-3.68 4.67 -2.36 4.34 -1 4 C-0.67 2.68 -0.34 1.36 0 0 Z " fill="#C8AD6F" transform="translate(355,255)"/>
<path d="M0 0 C1.2065625 0.0309375 1.2065625 0.0309375 2.4375 0.0625 C2.4375 0.7225 2.4375 1.3825 2.4375 2.0625 C1.02421871 2.88087442 -0.39328346 3.69196219 -1.8125 4.5 C-2.99585938 5.17869141 -2.99585938 5.17869141 -4.203125 5.87109375 C-6.35083468 6.95561602 -8.21455061 7.59398716 -10.5625 8.0625 C-10.4375 6.25 -10.4375 6.25 -9.5625 4.0625 C-6.5625 2.375 -6.5625 2.375 -3.5625 1.0625 C-2.5625 0.0625 -2.5625 0.0625 0 0 Z " fill="#CA9732" transform="translate(351.5625,229.9375)"/>
<path d="M0 0 C1.9375 0.8125 1.9375 0.8125 3.9375 2.8125 C2.64936658 3.65128455 1.35686744 4.48336783 0.0625 5.3125 C-0.65679687 5.7765625 -1.37609375 6.240625 -2.1171875 6.71875 C-4.0625 7.8125 -4.0625 7.8125 -6.0625 7.8125 C-5.69537028 5.09574005 -5.33505401 3.20186287 -3.75 0.9375 C-2.0625 -0.1875 -2.0625 -0.1875 0 0 Z " fill="#45576C" transform="translate(334.0625,147.1875)"/>
<path d="M0 0 C0.66 0.33 1.32 0.66 2 1 C1.67 2.65 1.34 4.3 1 6 C0.11248047 6.09087891 0.11248047 6.09087891 -0.79296875 6.18359375 C-4.90978208 6.62012371 -8.95544533 7.08671346 -13 8 C-9.10904843 4.59541738 -4.88634235 1.75822032 0 0 Z " fill="#5B687B" transform="translate(308,129)"/>
<path d="M0 0 C-2 3 -2 3 -4.625 3.6875 C-5.40875 3.790625 -6.1925 3.89375 -7 4 C-7 4.66 -7 5.32 -7 6 C-12.75 9 -12.75 9 -15 9 C-14.67 7.68 -14.34 6.36 -14 5 C-12.02 5 -10.04 5 -8 5 C-7.9175 4.38125 -7.835 3.7625 -7.75 3.125 C-7 1 -7 1 -5.125 -0.3125 C-3 -1 -3 -1 0 0 Z " fill="#3E4B5D" transform="translate(299,231)"/>
<path d="M0 0 C0.66 0.33 1.32 0.66 2 1 C1.01 2.32 0.02 3.64 -1 5 C-1 4.34 -1 3.68 -1 3 C-3.26297735 3.85467041 -3.26297735 3.85467041 -4 6.5 C-5 9 -5 9 -7 10 C-7 9.34 -7 8.68 -7 8 C-7.99 8.33 -8.98 8.66 -10 9 C-10.66 8.34 -11.32 7.68 -12 7 C-10.04754815 5.80285445 -8.08785003 4.61751926 -6.125 3.4375 C-5.03445313 2.77621094 -3.94390625 2.11492187 -2.8203125 1.43359375 C-1.88960938 0.96050781 -0.95890625 0.48742187 0 0 Z " fill="#525C6D" transform="translate(293,137)"/>
<path d="M0 0 C0.99 0.33 1.98 0.66 3 1 C-0.92061274 5.67944101 -4.96474962 7.8380068 -11 9 C-11.66 8.67 -12.32 8.34 -13 8 C-10.90320896 6.63304778 -8.7989062 5.28153009 -6.6875 3.9375 C-6.09259766 3.54755859 -5.49769531 3.15761719 -4.88476562 2.75585938 C-3.30390365 1.75788505 -1.65405288 0.87131304 0 0 Z " fill="#D8BF88" transform="translate(359,221)"/>
<path d="M0 0 C1.32 0.66 2.64 1.32 4 2 C-7.84885577 9.2357637 -7.84885577 9.2357637 -12 11 C-12.66 10.67 -13.32 10.34 -14 10 C-14 9.34 -14 8.68 -14 8 C-13.36191406 7.80664062 -12.72382813 7.61328125 -12.06640625 7.4140625 C-11.24011719 7.15367187 -10.41382813 6.89328125 -9.5625 6.625 C-8.73878906 6.36976563 -7.91507812 6.11453125 -7.06640625 5.8515625 C-4.82201984 5.19117773 -4.82201984 5.19117773 -4 3 C-2.68 3 -1.36 3 0 3 C0 2.01 0 1.02 0 0 Z " fill="#DBC78F" transform="translate(331,211)"/>
<path d="M0 0 C-1 3 -1 3 -2.84765625 4.16796875 C-3.57855469 4.50441406 -4.30945313 4.84085938 -5.0625 5.1875 C-5.79597656 5.53167969 -6.52945313 5.87585938 -7.28515625 6.23046875 C-8.13400391 6.61138672 -8.13400391 6.61138672 -9 7 C-9.66 5.68 -10.32 4.36 -11 3 C-9.35 2.67 -7.7 2.34 -6 2 C-6 1.34 -6 0.68 -6 0 C-3.50907189 -1.24546405 -2.58919267 -0.7767578 0 0 Z " fill="#0B1122" transform="translate(241,170)"/>
<path d="M0 0 C1.32 0.33 2.64 0.66 4 1 C3.52433594 1.98033203 3.52433594 1.98033203 3.0390625 2.98046875 C1.7271334 6.79295445 1.54673638 10.30889571 1.375 14.3125 C1.33632813 15.05306641 1.29765625 15.79363281 1.2578125 16.55664062 C1.16418295 18.37071309 1.08103149 20.18532116 1 22 C0.67 22 0.34 22 0 22 C0 14.74 0 7.48 0 0 Z " fill="#8B723F" transform="translate(336,237)"/>
<path d="M0 0 C-3.5087188 3.09592835 -6.49197399 4.74194623 -11 6 C-10.8125 3.625 -10.8125 3.625 -10 1 C-6.41025704 -1.19373181 -3.97935131 -1.13695752 0 0 Z " fill="#5C6C7B" transform="translate(324,157)"/>
<path d="M0 0 C0 0.66 0 1.32 0 2 C1.65 1.67 3.3 1.34 5 1 C5 2.98 5 4.96 5 7 C1.40608886 5.66511872 -1.75490696 4.03977277 -5 2 C-2 0 -2 0 0 0 Z " fill="#4F515B" transform="translate(246,288)"/>
<path d="M0 0 C0.66 0.33 1.32 0.66 2 1 C-1.75 5.875 -1.75 5.875 -4 7 C-5.99960012 7.039992 -8.00047242 7.04346799 -10 7 C-8.6875 5.5 -8.6875 5.5 -7 4 C-6.01 4 -5.02 4 -4 4 C-4 3.34 -4 2.68 -4 2 C-2.125 0.9375 -2.125 0.9375 0 0 Z " fill="#D0BA91" transform="translate(343,230)"/>
<path d="M0 0 C1.65 0 3.3 0 5 0 C5 0.66 5 1.32 5 2 C6.65 1.67 8.3 1.34 10 1 C8.46218054 4.07563891 6.08755777 4.70322574 3 6 C2.01 5.67 1.02 5.34 0 5 C0 3.35 0 1.7 0 0 Z " fill="#565C68" transform="translate(258,187)"/>
<path d="M0 0 C0.66 0.33 1.32 0.66 2 1 C-1.66622588 5.22171465 -4.48509285 6.95945148 -10 8 C-10.66 7.67 -11.32 7.34 -12 7 C-10.04754815 5.80285445 -8.08785003 4.61751926 -6.125 3.4375 C-5.03445313 2.77621094 -3.94390625 2.11492187 -2.8203125 1.43359375 C-1.88960938 0.96050781 -0.95890625 0.48742187 0 0 Z " fill="#798697" transform="translate(333,115)"/>
<path d="M0 0 C-0.804375 0.763125 -1.60875 1.52625 -2.4375 2.3125 C-5.16799024 4.79430898 -5.16799024 4.79430898 -6 8 C-6.99 8 -7.98 8 -9 8 C-8.8125 5.1875 -8.8125 5.1875 -8 2 C-3.9389313 -1.3129771 -3.9389313 -1.3129771 0 0 Z " fill="#102139" transform="translate(306,255)"/>
<path d="M0 0 C0.66 0.33 1.32 0.66 2 1 C0.84826645 3.46800047 -0.04783565 5.04783565 -2 7 C-2 6.34 -2 5.68 -2 5 C-4.31 5.33 -6.62 5.66 -9 6 C-6.12050853 3.76039553 -3.23257974 1.70135776 0 0 Z " fill="#C5A258" transform="translate(369,217)"/>
<path d="M0 0 C0.66 0.33 1.32 0.66 2 1 C-2.19963437 5.84573197 -6.85812693 6.91614005 -13 8 C-9.10904843 4.59541738 -4.88634235 1.75822032 0 0 Z " fill="#79818D" transform="translate(288,201)"/>
<path d="M0 0 C1.134375 0.020625 2.26875 0.04125 3.4375 0.0625 C3.4375 1.3825 3.4375 2.7025 3.4375 4.0625 C2.7775 4.0625 2.1175 4.0625 1.4375 4.0625 C1.4375 3.4025 1.4375 2.7425 1.4375 2.0625 C-0.2125 2.0625 -1.8625 2.0625 -3.5625 2.0625 C-3.2325 3.7125 -2.9025 5.3625 -2.5625 7.0625 C-3.8825 6.7325 -5.2025 6.4025 -6.5625 6.0625 C-4.25951087 0.07472826 -4.25951087 0.07472826 0 0 Z " fill="#0A1225" transform="translate(261.5625,184.9375)"/>
<path d="M0 0 C1.45922693 0.11409593 2.91740598 0.24165544 4.375 0.375 C5.59316406 0.47941406 5.59316406 0.47941406 6.8359375 0.5859375 C9 1 9 1 11 3 C11.66 3.33 12.32 3.66 13 4 C12 5 12 5 9.3125 5.3125 C5.23430299 4.92776443 3.18600105 3.50328654 0 1 C0 0.67 0 0.34 0 0 Z " fill="#71727F" transform="translate(262,302)"/>
<path d="M0 0 C-0.33 1.32 -0.66 2.64 -1 4 C-3.31 4.66 -5.62 5.32 -8 6 C-8.66 5.34 -9.32 4.68 -10 4 C-3.375 0 -3.375 0 0 0 Z " fill="#626B7F" transform="translate(300,196)"/>
<path d="M0 0 C0.66 0 1.32 0 2 0 C1.625 2.9375 1.625 2.9375 1 6 C0.01 6.495 0.01 6.495 -1 7 C-1.99 6.67 -2.98 6.34 -4 6 C-3.67 4.68 -3.34 3.36 -3 2 C-2.01 2 -1.02 2 0 2 C0 1.34 0 0.68 0 0 Z " fill="#C09138" transform="translate(365,162)"/>
<path d="M0 0 C1.4540625 0.0309375 1.4540625 0.0309375 2.9375 0.0625 C2.6075 1.3825 2.2775 2.7025 1.9375 4.0625 C-0.0425 4.0625 -2.0225 4.0625 -4.0625 4.0625 C-4.0625 0.08290816 -4.0625 0.08290816 0 0 Z " fill="#39495E" transform="translate(321.0625,122.9375)"/>
<path d="M0 0 C-0.125 1.875 -0.125 1.875 -1 4 C-4.78661425 5.76708665 -7.04865524 6.1914033 -11 5 C-9.54462432 4.16151196 -8.08559627 3.32936066 -6.625 2.5 C-5.81289063 2.0359375 -5.00078125 1.571875 -4.1640625 1.09375 C-2 0 -2 0 0 0 Z " fill="#CDB686" transform="translate(347,170)"/>
<path d="M0 0 C2.203125 0.9140625 2.203125 0.9140625 4 2 C2.71086513 2.67154933 1.41859796 3.33708859 0.125 4 C-0.59429687 4.37125 -1.31359375 4.7425 -2.0546875 5.125 C-4 6 -4 6 -6 6 C-6 5.01 -6 4.02 -6 3 C-3.25 1.375 -3.25 1.375 0 0 Z " fill="#46515E" transform="translate(315,280)"/>
<path d="M0 0 C0.99 0.33 1.98 0.66 3 1 C2.34 2.98 1.68 4.96 1 7 C0.34 6.01 -0.32 5.02 -1 4 C-2.65 4.33 -4.3 4.66 -6 5 C-4.06745228 2.9754262 -2.36841312 1.57894208 0 0 Z " fill="#7B8899" transform="translate(280,265)"/>
<path d="M0 0 C0 0.66 0 1.32 0 2 C-5.75 4 -5.75 4 -8 4 C-8.33 3.01 -8.66 2.02 -9 1 C-6.04335481 -0.4783226 -3.25770263 -0.06032783 0 0 Z " fill="#0C1828" transform="translate(328,244)"/>
<path d="M0 0 C0 0.99 0 1.98 0 3 C-2.5 4.6875 -2.5 4.6875 -5 6 C-5.99 5.01 -6.98 4.02 -8 3 C-3.375 0 -3.375 0 0 0 Z " fill="#474D59" transform="translate(276,209)"/>
<path d="M0 0 C0 1.32 0 2.64 0 4 C-4.455 4.495 -4.455 4.495 -9 5 C-2.87096774 0 -2.87096774 0 0 0 Z " fill="#D3BE8C" transform="translate(356,165)"/>
<path d="M0 0 C1.32 0 2.64 0 4 0 C4 0.66 4 1.32 4 2 C2.73581754 2.69965443 1.46334598 3.38434763 0.1875 4.0625 C-0.52019531 4.44535156 -1.22789062 4.82820312 -1.95703125 5.22265625 C-4 6 -4 6 -7 5 C-3.375 2 -3.375 2 0 2 C0 1.34 0 0.68 0 0 Z " fill="#616670" transform="translate(266,247)"/>
<path d="M0 0 C0.66 0.33 1.32 0.66 2 1 C2 1.99 2 2.98 2 4 C0 5.6875 0 5.6875 -2 7 C-2.66 6.34 -3.32 5.68 -4 5 C-4 4.01 -4 3.02 -4 2 C-2.68 2 -1.36 2 0 2 C0 1.34 0 0.68 0 0 Z " fill="#132642" transform="translate(300,224)"/>
<path d="M0 0 C0.66 0 1.32 0 2 0 C2.33 0.99 2.66 1.98 3 3 C1.75 4.5625 1.75 4.5625 0 6 C-2.1875 5.6875 -2.1875 5.6875 -4 5 C-2.68 4.34 -1.36 3.68 0 3 C0 2.01 0 1.02 0 0 Z M-6 5 C-5.34 5.66 -4.68 6.32 -4 7 C-4.99 7.495 -4.99 7.495 -6 8 C-6 7.01 -6 6.02 -6 5 Z " fill="#0D172A" transform="translate(276,209)"/>
<path d="M0 0 C0.33 0.66 0.66 1.32 1 2 C1.66 2 2.32 2 3 2 C4.625 4 4.625 4 6 6 C2.88772805 6 0.05847848 5.54372951 -3 5 C-2.01 3.35 -1.02 1.7 0 0 Z " fill="#15243E" transform="translate(290,201)"/>
<path d="M0 0 C-2.35277269 2.72426311 -4.62496331 3.8141763 -8 5 C-7.625 3.0625 -7.625 3.0625 -7 1 C-4.53721199 -0.231394 -2.7204945 -0.07159196 0 0 Z " fill="#6C7584" transform="translate(327,276)"/>
<path d="M0 0 C-6.625 4 -6.625 4 -10 4 C-10 3.01 -10 2.02 -10 1 C-8.71073008 0.63720544 -7.41846728 0.28503302 -6.125 -0.0625 C-5.40570313 -0.25972656 -4.68640625 -0.45695312 -3.9453125 -0.66015625 C-2 -1 -2 -1 0 0 Z " fill="#D1BB88" transform="translate(350,265)"/>
<path d="M0 0 C2 1 2 1 2 1 Z M-1 1 C-0.34 1.66 0.32 2.32 1 3 C-0.65 4.32 -2.3 5.64 -4 7 C-4.66 5.68 -5.32 4.36 -6 3 C-4.35 2.34 -2.7 1.68 -1 1 Z " fill="#101D30" transform="translate(313,249)"/>
<path d="M0 0 C0.66 0 1.32 0 2 0 C1.34 1.65 0.68 3.3 0 5 C-2.31 5.33 -4.62 5.66 -7 6 C-7 5.34 -7 4.68 -7 4 C-4.35261084 2.5393715 -3.10551666 2 0 2 C0 1.34 0 0.68 0 0 Z " fill="#2F394A" transform="translate(301,166)"/>
<path d="M0 0 C1.11375 0.3403125 1.11375 0.3403125 2.25 0.6875 C-2.89285714 5.11607143 -2.89285714 5.11607143 -6.75 5.6875 C-6.75 2.6875 -6.75 2.6875 -5.0625 0.9375 C-2.75 -0.3125 -2.75 -0.3125 0 0 Z " fill="#667483" transform="translate(310.75,162.3125)"/>
<path d="M0 0 C0 0.66 0 1.32 0 2 C-1.98 2.33 -3.96 2.66 -6 3 C-6 2.01 -6 1.02 -6 0 C-3.50907189 -1.24546405 -2.58919267 -0.7767578 0 0 Z " fill="#B38C43" transform="translate(350,262)"/>
<path d="M0 0 C0.66 0 1.32 0 2 0 C2 0.66 2 1.32 2 2 C2.99 2.33 3.98 2.66 5 3 C2.625 4.5625 2.625 4.5625 0 6 C-0.66 5.67 -1.32 5.34 -2 5 C-1.34 3.35 -0.68 1.7 0 0 Z " fill="#546074" transform="translate(279,298)"/>
<path d="M0 0 C1.32 0.33 2.64 0.66 4 1 C3.34 2.65 2.68 4.3 2 6 C1.34 5.34 0.68 4.68 0 4 C0 2.68 0 1.36 0 0 Z " fill="#836429" transform="translate(336,237)"/>
<path d="M0 0 C2.31 0 4.62 0 7 0 C4.33440687 1.77706209 1.9719385 2.87548273 -1 4 C-0.67 2.68 -0.34 1.36 0 0 Z " fill="#69717E" transform="translate(285,236)"/>
<path d="M0 0 C0.99 0.99 1.98 1.98 3 3 C0.525 4.485 0.525 4.485 -2 6 C-2 4.35 -2 2.7 -2 1 C-1.34 0.67 -0.68 0.34 0 0 Z " fill="#081120" transform="translate(260,218)"/>
<path d="M0 0 C-4.625 3 -4.625 3 -8 3 C-8.33 2.01 -8.66 1.02 -9 0 C-3.375 -1.125 -3.375 -1.125 0 0 Z " fill="#DEC699" transform="translate(348,206)"/>
<path d="M0 0 C2.125 0.9375 2.125 0.9375 4 2 C4 2.66 4 3.32 4 4 C2.35 4 0.7 4 -1 4 C-1.33 3.01 -1.66 2.02 -2 1 C-1.34 0.67 -0.68 0.34 0 0 Z " fill="#9F7A35" transform="translate(354,195)"/>
</svg>
